<?xml version="1.0" encoding="utf-8"?>
<!-- Generator: Adobe Illustrator 16.0.3, SVG Export Plug-In . SVG Version: 6.00 Build 0)  -->
<!DOCTYPE svg PUBLIC "-//W3C//DTD SVG 1.1//EN" "http://www.w3.org/Graphics/SVG/1.1/DTD/svg11.dtd">
<svg version="1.1" id="Ebene_1" xmlns="http://www.w3.org/2000/svg" xmlns:xlink="http://www.w3.org/1999/xlink" x="0px" y="0px"
	 width="841.891px" height="595.281px" viewBox="0 0 841.891 595.281" enable-background="new 0 0 841.891 595.281"
	 xml:space="preserve">
<text transform="matrix(1 0 0 1 249.4529 78.3081)" font-family="'ArialMT'" font-size="12">My line chart</text>
<line fill="none" stroke="#000000" stroke-width="0.5" stroke-miterlimit="10" x1="141.732" y1="85.04" x2="137.48" y2="85.04"/>
<line fill="none" stroke="#000000" stroke-width="0.5" stroke-miterlimit="10" x1="141.732" y1="113.386" x2="137.48" y2="113.386"/>
<line fill="none" stroke="#000000" stroke-width="0.5" stroke-miterlimit="10" x1="141.732" y1="141.732" x2="137.48" y2="141.732"/>
<line fill="none" stroke="#000000" stroke-width="0.5" stroke-miterlimit="10" x1="141.732" y1="170.078" x2="137.48" y2="170.078"/>
<line fill="none" stroke="#000000" stroke-width="0.5" stroke-miterlimit="10" x1="141.732" y1="198.424" x2="137.48" y2="198.424"/>
<line fill="none" stroke="#000000" stroke-width="0.5" stroke-miterlimit="10" x1="141.732" y1="226.771" x2="137.48" y2="226.771"/>
<line fill="none" stroke="#000000" stroke-width="0.5" stroke-miterlimit="10" x1="155.905" y1="226.772" x2="155.905" y2="231.024"/>
<line fill="none" stroke="#000000" stroke-width="0.5" stroke-miterlimit="10" x1="184.252" y1="226.772" x2="184.252" y2="231.024"/>
<line fill="none" stroke="#000000" stroke-width="0.5" stroke-miterlimit="10" x1="212.597" y1="226.772" x2="212.597" y2="231.024"/>
<line fill="none" stroke="#000000" stroke-width="0.5" stroke-miterlimit="10" x1="240.944" y1="226.772" x2="240.944" y2="231.024"/>
<line fill="none" stroke="#000000" stroke-width="0.5" stroke-miterlimit="10" x1="269.29" y1="226.772" x2="269.29" y2="231.024"/>
<line fill="none" stroke="#000000" stroke-width="0.5" stroke-miterlimit="10" x1="297.635" y1="226.772" x2="297.635" y2="231.024"/>
<line fill="none" stroke="#000000" stroke-width="0.5" stroke-miterlimit="10" x1="325.983" y1="226.772" x2="325.983" y2="231.024"/>
<line fill="none" stroke="#000000" stroke-width="0.5" stroke-miterlimit="10" x1="354.329" y1="226.772" x2="354.329" y2="231.024"/>
<line fill="none" stroke="#000000" stroke-width="0.5" stroke-miterlimit="10" x1="382.675" y1="226.772" x2="382.675" y2="231.024"/>
<line fill="none" stroke="#000000" stroke-width="0.5" stroke-miterlimit="10" x1="411.021" y1="226.772" x2="411.021" y2="231.024"/>
<text transform="matrix(1 0 0 1 151.7346 241.022)" font-family="'ArialMT'" font-size="10">t1</text>
<text transform="matrix(1 0 0 1 180.0813 241.022)" font-family="'ArialMT'" font-size="10">t2</text>
<text transform="matrix(1 0 0 1 208.4275 241.022)" font-family="'ArialMT'" font-size="10">t3</text>
<text transform="matrix(1 0 0 1 236.7742 241.022)" font-family="'ArialMT'" font-size="10">t4</text>
<text transform="matrix(1 0 0 1 265.1204 241.022)" font-family="'ArialMT'" font-size="10">t5</text>
<text transform="matrix(1 0 0 1 247.3372 255.6865)" font-family="'ArialMT'" font-size="10">Timepoint</text>
<text transform="matrix(1 0 0 1 293.467 241.022)" font-family="'ArialMT'" font-size="10">t6</text>
<text transform="matrix(1 0 0 1 321.8132 241.022)" font-family="'ArialMT'" font-size="10">t7</text>
<text transform="matrix(1 0 0 1 350.1599 241.022)" font-family="'ArialMT'" font-size="10">t8</text>
<text transform="matrix(1 0 0 1 378.5061 241.022)" font-family="'ArialMT'" font-size="10">t9</text>
<text transform="matrix(1 0 0 1 404.072 241.022)" font-family="'ArialMT'" font-size="10">t10</text>
<rect id="frame" x="141.732" y="85.04" fill="none" stroke="#000000" stroke-width="0.5" stroke-miterlimit="10" width="283.464" height="141.732"/>
<text transform="matrix(1 0 0 1 109.0686 87.707)" font-family="'ArialMT'" font-size="10">100%</text>
<text transform="matrix(1 0 0 1 114.6301 116.0532)" font-family="'ArialMT'" font-size="10">80%</text>
<text transform="matrix(1 0 0 1 114.6301 144.3994)" font-family="'ArialMT'" font-size="10">60%</text>
<text transform="matrix(1 0 0 1 114.6301 172.7456)" font-family="'ArialMT'" font-size="10">40%</text>
<text transform="matrix(1 0 0 1 114.6301 201.0918)" font-family="'ArialMT'" font-size="10">20%</text>
<text transform="matrix(1 0 0 1 120.1917 229.438)" font-family="'ArialMT'" font-size="10">0%</text>
<text transform="matrix(4.489659e-011 -1 1 4.489659e-011 102.9861 195.376)" font-family="'ArialMT'" font-size="10">Some percentage</text>
<rect x="144.566" y="266.266" fill="#706F6F" width="5.669" height="5.669"/>
<text transform="matrix(1 0 0 1 153.7791 273.1851)" font-family="'ArialMT'" font-size="10">Group A</text>
<text transform="matrix(1 0 0 1 210.4719 273.1851)" font-family="'ArialMT'" font-size="10">Group B</text>
<text transform="matrix(1 0 0 1 267.1648 273.1851)" font-family="'ArialMT'" font-size="10">Group C</text>
<text transform="matrix(1 0 0 1 323.8577 273.1851)" font-family="'ArialMT'" font-size="10">Group D</text>
<circle fill="#1D1D1B" cx="204.094" cy="269.1" r="3.543"/>
<polygon fill="#B2B2B2" points="265.039,270.898 262.036,270.882 260.322,273.352 259.408,270.485 256.535,269.614 258.973,267.858 
	258.912,264.848 261.332,266.63 264.168,265.642 263.225,268.5 "/>
<g>
	<line fill="none" stroke="#1D1D1B" stroke-miterlimit="10" x1="314.975" y1="266.595" x2="319.985" y2="271.605"/>
	<line fill="none" stroke="#1D1D1B" stroke-miterlimit="10" x1="314.975" y1="271.605" x2="319.985" y2="266.595"/>
</g>
<text transform="matrix(1 0 0 1 380.5496 273.1851)" font-family="'ArialMT'" font-size="10">Group E</text>
<g>
	<g>
		<line fill="none" stroke="#1D1D1B" stroke-miterlimit="10" x1="368.503" y1="269.102" x2="370.003" y2="269.102"/>
		
			<line fill="none" stroke="#1D1D1B" stroke-miterlimit="10" stroke-dasharray="2.7796,0.9265" x1="370.93" y1="269.102" x2="377.879" y2="269.102"/>
		<line fill="none" stroke="#1D1D1B" stroke-miterlimit="10" x1="378.342" y1="269.102" x2="379.842" y2="269.102"/>
	</g>
</g>
<line fill="none" stroke="#1D1D1B" stroke-miterlimit="10" x1="311.81" y1="269.102" x2="323.149" y2="269.102"/>
<line fill="none" stroke="#1D1D1B" stroke-miterlimit="10" x1="198.425" y1="269.102" x2="209.763" y2="269.102"/>
<line fill="none" stroke="#706F6F" stroke-miterlimit="10" x1="141.732" y1="269.102" x2="153.071" y2="269.102"/>
<g id="gE">
	<line fill="none" stroke="#1D1D1B" stroke-miterlimit="10" stroke-dasharray="3.0416,1.0139" x1="155.905" y1="212.599" x2="184.252" y2="212.599"/>
</g>
<g id="gD">
	<g>
		<line fill="none" stroke="#000000" stroke-miterlimit="10" x1="153.4" y1="181.747" x2="158.41" y2="186.757"/>
		<line fill="none" stroke="#000000" stroke-miterlimit="10" x1="153.4" y1="186.757" x2="158.41" y2="181.747"/>
	</g>
	<line fill="none" stroke="#1D1D1B" stroke-miterlimit="10" x1="155.905" y1="184.252" x2="184.252" y2="184.252"/>
</g>
<g id="gC">
	<polygon fill="#B2B2B2" points="160.157,157.704 157.154,157.688 155.439,160.158 154.526,157.291 151.653,156.419 
		154.091,154.664 154.03,151.654 156.45,153.436 159.286,152.448 158.344,155.305 	"/>
	<polygon fill="#B2B2B2" points="188.503,157.704 185.5,157.688 183.785,160.158 182.872,157.291 179.999,156.419 182.437,154.664 
		182.376,151.654 184.796,153.436 187.632,152.448 186.69,155.305 	"/>
</g>
<g id="gB">
	<circle fill="#1D1D1B" cx="155.905" cy="127.559" r="3.543"/>
	<circle fill="#1D1D1B" cx="184.251" cy="127.559" r="3.543"/>
	<line fill="none" stroke="#1D1D1B" stroke-miterlimit="10" x1="155.905" y1="127.559" x2="184.252" y2="127.559"/>
</g>
<g id="gA">
	<rect x="153.07" y="96.378" fill="#706F6F" width="5.67" height="5.669"/>
	<line fill="none" stroke="#706F6F" stroke-miterlimit="10" x1="155.905" y1="99.212" x2="184.252" y2="99.212"/>
	<rect x="181.417" y="96.378" fill="#706F6F" width="5.67" height="5.669"/>
	<line fill="none" stroke="#706F6F" stroke-miterlimit="10" x1="184.252" y1="99.212" x2="212.598" y2="99.212"/>
	<rect x="209.763" y="96.378" fill="#706F6F" width="5.67" height="5.669"/>
	<line fill="none" stroke="#706F6F" stroke-miterlimit="10" x1="212.598" y1="99.212" x2="240.945" y2="99.212"/>
	<rect x="238.109" y="96.378" fill="#706F6F" width="5.67" height="5.669"/>
	<line fill="none" stroke="#706F6F" stroke-miterlimit="10" x1="240.944" y1="99.212" x2="269.291" y2="99.212"/>
	<rect x="266.455" y="96.378" fill="#706F6F" width="5.67" height="5.669"/>
	<line fill="none" stroke="#706F6F" stroke-miterlimit="10" x1="269.29" y1="99.212" x2="297.637" y2="99.212"/>
	<rect x="294.802" y="96.378" fill="#706F6F" width="5.67" height="5.669"/>
	<line fill="none" stroke="#706F6F" stroke-miterlimit="10" x1="297.636" y1="99.212" x2="325.983" y2="99.212"/>
	<rect x="323.148" y="96.378" fill="#706F6F" width="5.67" height="5.669"/>
	<line fill="none" stroke="#706F6F" stroke-miterlimit="10" x1="325.983" y1="99.212" x2="354.329" y2="99.212"/>
	<rect x="351.494" y="96.378" fill="#706F6F" width="5.67" height="5.669"/>
	<line fill="none" stroke="#706F6F" stroke-miterlimit="10" x1="354.329" y1="99.212" x2="382.676" y2="99.212"/>
	<rect x="379.84" y="96.378" fill="#706F6F" width="5.67" height="5.669"/>
	<line fill="none" stroke="#706F6F" stroke-miterlimit="10" x1="382.675" y1="99.212" x2="411.022" y2="99.212"/>
	<rect x="408.186" y="96.378" fill="#706F6F" width="5.67" height="5.669"/>
</g>
</svg>
